<?xml version="1.0" encoding="UTF-8"?>
<svg xmlns="http://www.w3.org/2000/svg" xmlns:xlink="http://www.w3.org/1999/xlink" width="546.71pt" height="184.64pt" viewBox="0 0 546.71 184.64" version="1.1">
<defs>
<clipPath id="clip1">
  <path d="M 535 48 L 546.710938 48 L 546.710938 105 L 535 105 Z M 535 48 "/>
</clipPath>
<clipPath id="clip2">
  <path d="M 119 0 L 304 0 L 304 184.640625 L 119 184.640625 Z M 119 0 "/>
</clipPath>
</defs>
<g id="surface1">
<path style=" stroke:none;fill-rule:nonzero;fill:rgb(17.999268%,14.099121%,17.599487%);fill-opacity:1;" d="M 422.597656 82.878906 C 422.597656 87.191406 423.4375 90.347656 425.105469 92.351563 C 426.773438 94.355469 428.835938 95.355469 431.285156 95.355469 C 433.914063 95.355469 436.132813 94.328125 437.945313 92.273438 C 439.757813 90.21875 440.660156 87.175781 440.660156 83.144531 C 440.660156 78.9375 439.796875 75.8125 438.058594 73.769531 C 436.324219 71.730469 434.128906 70.710938 431.480469 70.710938 C 428.902344 70.710938 426.773438 71.710938 425.105469 73.710938 C 423.4375 75.714844 422.597656 78.769531 422.597656 82.878906 M 412.992188 106.71875 L 425.277344 108.214844 C 425.484375 109.640625 425.953125 110.625 426.691406 111.160156 C 427.714844 111.925781 429.324219 112.308594 431.515625 112.308594 C 434.320313 112.308594 436.429688 111.886719 437.828125 111.046875 C 438.773438 110.484375 439.488281 109.578125 439.972656 108.328125 C 440.304688 107.4375 440.46875 105.792969 440.46875 103.390625 L 440.46875 97.460938 C 437.257813 101.847656 433.199219 104.042969 428.300781 104.042969 C 422.84375 104.042969 418.515625 101.730469 415.328125 97.117188 C 412.828125 93.46875 411.578125 88.925781 411.578125 83.488281 C 411.578125 76.679688 413.21875 71.472656 416.492188 67.878906 C 419.773438 64.277344 423.847656 62.480469 428.722656 62.480469 C 433.746094 62.480469 437.894531 64.6875 441.160156 69.101563 L 441.160156 63.398438 L 451.222656 63.398438 L 451.222656 99.871094 C 451.222656 104.667969 450.828125 108.253906 450.039063 110.625 C 449.246094 112.996094 448.140625 114.859375 446.710938 116.210938 C 445.28125 117.566406 443.371094 118.625 440.988281 119.390625 C 438.601563 120.15625 435.585938 120.539063 431.9375 120.539063 C 425.046875 120.539063 420.160156 119.355469 417.277344 116.996094 C 414.394531 114.636719 412.953125 111.644531 412.953125 108.023438 C 412.953125 107.664063 412.96875 107.230469 412.992188 106.71875 "/>
<path style=" stroke:none;fill-rule:nonzero;fill:rgb(17.999268%,14.099121%,17.599487%);fill-opacity:1;" d="M 11.328125 79.84375 L 11.328125 94.847656 L 21.8125 94.847656 C 25.894531 94.847656 28.484375 94.730469 29.582031 94.503906 C 31.265625 94.195313 32.636719 93.449219 33.695313 92.261719 C 34.753906 91.078125 35.285156 89.488281 35.285156 87.496094 C 35.285156 85.8125 34.875 84.386719 34.058594 83.210938 C 33.242188 82.039063 32.0625 81.183594 30.519531 80.648438 C 28.976563 80.113281 25.628906 79.84375 20.472656 79.84375 Z M 11.328125 57.53125 L 11.328125 70.507813 L 18.753906 70.507813 C 23.164063 70.507813 25.90625 70.445313 26.980469 70.316406 C 28.917969 70.085938 30.445313 69.414063 31.554688 68.304688 C 32.664063 67.195313 33.21875 65.734375 33.21875 63.921875 C 33.21875 62.1875 32.738281 60.78125 31.78125 59.695313 C 30.828125 58.609375 29.40625 57.953125 27.515625 57.722656 C 26.394531 57.597656 23.164063 57.53125 17.835938 57.53125 Z M 0 48.195313 L 22.425781 48.195313 C 26.863281 48.195313 30.175781 48.378906 32.355469 48.75 C 34.535156 49.117188 36.488281 49.890625 38.210938 51.0625 C 39.933594 52.238281 41.371094 53.800781 42.519531 55.753906 C 43.664063 57.703125 44.238281 59.894531 44.238281 62.316406 C 44.238281 64.945313 43.53125 67.355469 42.117188 69.550781 C 40.699219 71.742188 38.78125 73.390625 36.355469 74.484375 C 39.773438 75.480469 42.402344 77.179688 44.238281 79.578125 C 46.078125 81.976563 46.996094 84.792969 46.996094 88.035156 C 46.996094 90.585938 46.402344 93.066406 45.214844 95.476563 C 44.03125 97.890625 42.410156 99.816406 40.355469 101.257813 C 38.300781 102.699219 35.769531 103.585938 32.757813 103.917969 C 30.871094 104.121094 26.316406 104.25 19.097656 104.300781 L 0 104.300781 L 0 48.195313 "/>
<path style=" stroke:none;fill-rule:nonzero;fill:rgb(17.999268%,14.099121%,17.599487%);fill-opacity:1;" d="M 78.910156 84.78125 C 77.535156 85.238281 75.351563 85.789063 72.367188 86.425781 C 69.382813 87.066406 67.429688 87.691406 66.515625 88.300781 C 65.109375 89.296875 64.40625 90.558594 64.40625 92.089844 C 64.40625 93.597656 64.96875 94.898438 66.09375 95.992188 C 67.214844 97.09375 68.640625 97.640625 70.378906 97.640625 C 72.316406 97.640625 74.167969 97.003906 75.925781 95.726563 C 77.226563 94.757813 78.082031 93.570313 78.492188 92.167969 C 78.773438 91.25 78.910156 89.5 78.910156 86.925781 Z M 64.523438 76.054688 L 54.765625 74.296875 C 55.859375 70.367188 57.75 67.457031 60.429688 65.570313 C 63.105469 63.679688 67.085938 62.734375 72.367188 62.734375 C 77.164063 62.734375 80.734375 63.304688 83.082031 64.441406 C 85.429688 65.574219 87.082031 67.015625 88.039063 68.765625 C 88.996094 70.511719 89.472656 73.71875 89.472656 78.390625 L 89.359375 90.945313 C 89.359375 94.515625 89.53125 97.152344 89.875 98.84375 C 90.21875 100.542969 90.867188 102.359375 91.808594 104.300781 L 81.171875 104.300781 C 80.890625 103.585938 80.542969 102.523438 80.136719 101.125 C 79.957031 100.488281 79.832031 100.066406 79.753906 99.859375 C 77.917969 101.644531 75.953125 102.988281 73.859375 103.878906 C 71.769531 104.773438 69.535156 105.21875 67.164063 105.21875 C 62.976563 105.21875 59.679688 104.082031 57.269531 101.8125 C 54.859375 99.542969 53.652344 96.671875 53.652344 93.199219 C 53.652344 90.90625 54.203125 88.855469 55.300781 87.058594 C 56.394531 85.257813 57.933594 83.882813 59.910156 82.925781 C 61.886719 81.96875 64.738281 81.132813 68.464844 80.417969 C 73.492188 79.472656 76.972656 78.59375 78.910156 77.777344 L 78.910156 76.707031 C 78.910156 74.636719 78.402344 73.164063 77.378906 72.285156 C 76.359375 71.40625 74.433594 70.964844 71.601563 70.964844 C 69.6875 70.964844 68.195313 71.34375 67.125 72.09375 C 66.050781 72.847656 65.183594 74.167969 64.523438 76.054688 "/>
<path style=" stroke:none;fill-rule:nonzero;fill:rgb(17.999268%,14.099121%,17.599487%);fill-opacity:1;" d="M 137.042969 104.300781 L 126.289063 104.300781 L 126.289063 83.554688 C 126.289063 79.167969 126.0625 76.328125 125.601563 75.039063 C 125.140625 73.753906 124.394531 72.75 123.363281 72.035156 C 122.328125 71.324219 121.085938 70.964844 119.632813 70.964844 C 117.769531 70.964844 116.097656 71.476563 114.617188 72.496094 C 113.136719 73.519531 112.125 74.867188 111.574219 76.554688 C 111.027344 78.238281 110.753906 81.351563 110.753906 85.890625 L 110.753906 104.300781 L 100 104.300781 L 100 63.65625 L 109.984375 63.65625 L 109.984375 69.625 C 113.53125 65.03125 117.996094 62.734375 123.382813 62.734375 C 125.753906 62.734375 127.921875 63.164063 129.886719 64.019531 C 131.851563 64.875 133.339844 65.964844 134.34375 67.292969 C 135.355469 68.617188 136.054688 70.125 136.449219 71.808594 C 136.847656 73.488281 137.042969 75.902344 137.042969 79.039063 L 137.042969 104.300781 "/>
<path style=" stroke:none;fill-rule:nonzero;fill:rgb(17.999268%,14.099121%,17.599487%);fill-opacity:1;" d="M 147.570313 104.300781 L 147.570313 48.195313 L 158.324219 48.195313 L 158.324219 77.96875 L 170.914063 63.65625 L 184.15625 63.65625 L 170.261719 78.507813 L 185.148438 104.300781 L 173.554688 104.300781 L 163.335938 86.042969 L 158.324219 91.289063 L 158.324219 104.300781 L 147.570313 104.300781 "/>
<path style=" stroke:none;fill-rule:nonzero;fill:rgb(17.999268%,14.099121%,17.599487%);fill-opacity:1;" d="M 313.988281 104.300781 L 313.988281 48.195313 L 325.011719 48.195313 L 347.972656 85.660156 L 347.972656 48.195313 L 358.496094 48.195313 L 358.496094 104.300781 L 347.132813 104.300781 L 324.511719 67.714844 L 324.511719 104.300781 L 313.988281 104.300781 "/>
<path style=" stroke:none;fill-rule:nonzero;fill:rgb(17.999268%,14.099121%,17.599487%);fill-opacity:1;" d="M 392.824219 84.78125 C 391.445313 85.238281 389.265625 85.789063 386.28125 86.425781 C 383.296875 87.066406 381.34375 87.691406 380.429688 88.300781 C 379.023438 89.296875 378.320313 90.558594 378.320313 92.089844 C 378.320313 93.597656 378.882813 94.898438 380.003906 95.992188 C 381.128906 97.09375 382.554688 97.640625 384.289063 97.640625 C 386.230469 97.640625 388.078125 97.003906 389.839844 95.726563 C 391.140625 94.757813 391.996094 93.570313 392.402344 92.167969 C 392.683594 91.25 392.824219 89.5 392.824219 86.925781 Z M 378.433594 76.054688 L 368.679688 74.296875 C 369.773438 70.367188 371.664063 67.457031 374.339844 65.570313 C 377.019531 63.679688 381.003906 62.734375 386.28125 62.734375 C 391.078125 62.734375 394.648438 63.304688 396.996094 64.441406 C 399.34375 65.574219 400.996094 67.015625 401.953125 68.765625 C 402.910156 70.511719 403.386719 73.71875 403.386719 78.390625 L 403.273438 90.945313 C 403.273438 94.515625 403.445313 97.152344 403.789063 98.84375 C 404.132813 100.542969 404.777344 102.359375 405.722656 104.300781 L 395.085938 104.300781 C 394.804688 103.585938 394.460938 102.523438 394.050781 101.125 C 393.871094 100.488281 393.746094 100.066406 393.667969 99.859375 C 391.828125 101.644531 389.863281 102.988281 387.773438 103.878906 C 385.683594 104.773438 383.449219 105.21875 381.078125 105.21875 C 376.890625 105.21875 373.59375 104.082031 371.183594 101.8125 C 368.773438 99.542969 367.566406 96.671875 367.566406 93.199219 C 367.566406 90.90625 368.113281 88.855469 369.214844 87.058594 C 370.308594 85.257813 371.84375 83.882813 373.824219 82.925781 C 375.800781 81.96875 378.652344 81.132813 382.378906 80.417969 C 387.40625 79.472656 390.886719 78.59375 392.824219 77.777344 L 392.824219 76.707031 C 392.824219 74.636719 392.316406 73.164063 391.292969 72.285156 C 390.273438 71.40625 388.347656 70.964844 385.515625 70.964844 C 383.601563 70.964844 382.109375 71.34375 381.039063 72.09375 C 379.964844 72.847656 379.097656 74.167969 378.433594 76.054688 "/>
<path style=" stroke:none;fill-rule:nonzero;fill:rgb(17.999268%,14.099121%,17.599487%);fill-opacity:1;" d="M 484.289063 84.78125 C 482.910156 85.238281 480.730469 85.789063 477.746094 86.425781 C 474.761719 87.066406 472.808594 87.691406 471.890625 88.300781 C 470.484375 89.296875 469.785156 90.558594 469.785156 92.089844 C 469.785156 93.597656 470.347656 94.898438 471.46875 95.992188 C 472.589844 97.09375 474.019531 97.640625 475.753906 97.640625 C 477.691406 97.640625 479.542969 97.003906 481.304688 95.726563 C 482.605469 94.757813 483.460938 93.570313 483.867188 92.167969 C 484.148438 91.25 484.289063 89.5 484.289063 86.925781 Z M 469.898438 76.054688 L 460.140625 74.296875 C 461.238281 70.367188 463.128906 67.457031 465.804688 65.570313 C 468.484375 63.679688 472.464844 62.734375 477.746094 62.734375 C 482.539063 62.734375 486.113281 63.304688 488.460938 64.441406 C 490.808594 65.574219 492.460938 67.015625 493.414063 68.765625 C 494.371094 70.511719 494.851563 73.71875 494.851563 78.390625 L 494.734375 90.945313 C 494.734375 94.515625 494.90625 97.152344 495.253906 98.84375 C 495.597656 100.542969 496.242188 102.359375 497.1875 104.300781 L 486.546875 104.300781 C 486.265625 103.585938 485.921875 102.523438 485.515625 101.125 C 485.335938 100.488281 485.210938 100.066406 485.132813 99.859375 C 483.292969 101.644531 481.328125 102.988281 479.238281 103.878906 C 477.144531 104.773438 474.914063 105.21875 472.539063 105.21875 C 468.355469 105.21875 465.058594 104.082031 462.648438 101.8125 C 460.238281 99.542969 459.03125 96.671875 459.03125 93.199219 C 459.03125 90.90625 459.578125 88.855469 460.675781 87.058594 C 461.773438 85.257813 463.308594 83.882813 465.289063 82.925781 C 467.265625 81.96875 470.117188 81.132813 473.84375 80.417969 C 478.867188 79.472656 482.347656 78.59375 484.289063 77.777344 L 484.289063 76.707031 C 484.289063 74.636719 483.78125 73.164063 482.757813 72.285156 C 481.738281 71.40625 479.8125 70.964844 476.980469 70.964844 C 475.066406 70.964844 473.574219 71.34375 472.503906 72.09375 C 471.429688 72.847656 470.5625 74.167969 469.898438 76.054688 "/>
<path style=" stroke:none;fill-rule:nonzero;fill:rgb(17.999268%,14.099121%,17.599487%);fill-opacity:1;" d="M 515.746094 104.300781 L 504.992188 104.300781 L 504.992188 63.65625 L 514.980469 63.65625 L 514.980469 69.433594 C 516.691406 66.703125 518.226563 64.90625 519.59375 64.035156 C 520.960938 63.171875 522.507813 62.734375 524.242188 62.734375 C 526.691406 62.734375 529.050781 63.414063 531.320313 64.765625 L 527.992188 74.140625 C 526.179688 72.96875 524.496094 72.382813 522.941406 72.382813 C 521.4375 72.382813 520.160156 72.796875 519.113281 73.625 C 518.066406 74.453125 517.246094 75.953125 516.644531 78.121094 C 516.046875 80.289063 515.746094 84.832031 515.746094 91.746094 L 515.746094 104.300781 "/>
<g clip-path="url(#clip1)" clip-rule="nonzero">
<path style=" stroke:none;fill-rule:nonzero;fill:rgb(17.999268%,14.099121%,17.599487%);fill-opacity:1;" d="M 535.953125 63.65625 L 546.710938 63.65625 L 546.710938 104.300781 L 535.953125 104.300781 Z M 535.953125 48.195313 L 546.710938 48.195313 L 546.710938 58.144531 L 535.953125 58.144531 L 535.953125 48.195313 "/>
</g>
<g clip-path="url(#clip2)" clip-rule="nonzero">
<path style=" stroke:none;fill-rule:evenodd;fill:rgb(25.099182%,29.798889%,57.998657%);fill-opacity:1;" d="M 234.550781 105.726563 L 234.269531 105.929688 L 227.910156 111.644531 C 221.835938 116.363281 217.914063 120.285156 210.878906 125.203125 C 203.320313 130.480469 197.402344 135.039063 188.964844 139.757813 L 176.570313 145.957031 C 167.171875 150.316406 149.617188 156.753906 137.019531 150.875 C 126.503906 145.996094 125.621094 135.558594 125.542969 125.523438 C 125.542969 121.203125 126.621094 118.164063 126.941406 114.527344 C 124.265625 116.324219 119.664063 138.878906 119.425781 141.4375 C 117.824219 157.234375 120.945313 170.070313 132.742188 178.226563 C 142.65625 185.105469 156.214844 185.304688 167.851563 184.027344 C 170.449219 183.746094 172.730469 183.347656 175.289063 182.867188 C 188.324219 180.269531 200.921875 175.148438 212.238281 169.230469 C 213.277344 168.710938 213.757813 168.3125 214.878906 167.75 C 218.675781 165.832031 219.59375 165.03125 223.15625 162.914063 C 226.433594 160.953125 234.828125 155.234375 237.949219 152.636719 L 253.664063 138.757813 C 255.464844 136.640625 258.144531 134.359375 260.304688 131.960938 L 262.742188 129.203125 L 270.21875 119.882813 C 271.539063 118.203125 272.617188 116.566406 273.816406 114.886719 C 278.9375 107.605469 279.894531 106.246094 284.296875 98.851563 L 290.492188 87.53125 C 291.535156 85.453125 292.214844 83.695313 293.214844 81.613281 C 294.132813 79.695313 295.09375 77.496094 295.773438 75.617188 C 303.648438 54.460938 309.167969 25.550781 290.773438 7.796875 C 286.65625 3.835938 278.457031 0.4375 272.421875 -0.00390625 L 262.382813 -0.00390625 C 252.945313 0.675781 244.027344 3.277344 235.390625 6.953125 C 231.3125 8.714844 227.394531 10.472656 223.59375 12.714844 C 221.195313 14.074219 213.757813 17.632813 212.597656 19.230469 C 213.835938 18.871094 213.835938 18.910156 214.914063 18.472656 C 227.910156 12.832031 251.226563 6.074219 263.742188 13.515625 C 266.539063 15.152344 268.539063 16.953125 270.140625 19.832031 C 276.417969 31.148438 272.140625 49.0625 266.699219 60.660156 C 265.980469 62.179688 265.503906 63.539063 264.863281 64.980469 C 262.144531 71.136719 254.746094 82.734375 250.226563 88.53125 C 249.703125 89.210938 249.425781 89.652344 248.90625 90.332031 L 241.390625 98.96875 C 239.550781 100.808594 236.910156 103.808594 234.992188 105.25 L 234.550781 105.726563 "/>
</g>
<path style=" stroke:none;fill-rule:evenodd;fill:rgb(98.399353%,79.598999%,3.49884%);fill-opacity:1;" d="M 261.3125 132.269531 L 234.253906 132.269531 L 234.253906 105.214844 L 261.3125 105.214844 L 261.3125 132.269531 "/>
<path style=" stroke:none;fill-rule:nonzero;fill:rgb(13.699341%,12.199402%,12.5%);fill-opacity:1;" d="M 288.378906 132.269531 L 261.324219 132.269531 L 261.324219 159.324219 L 261.429688 159.324219 L 288.378906 132.429688 L 288.378906 132.269531 "/>
<path style=" stroke:none;fill-rule:nonzero;fill:rgb(87.098694%,12.199402%,14.898682%);fill-opacity:1;" d="M 207.175781 105.195313 L 207.175781 105.21875 L 234.230469 105.21875 L 234.230469 78.191406 L 207.175781 105.195313 "/>
</g>
</svg>
